<svg width="158" height="18" xmlns="http://www.w3.org/2000/svg"><title>Logo</title><g fill="#1D1D1D" fill-rule="evenodd"><path d="M3.04.93l5.32 12.42L13.71.93l2.97 15.64h-1.67l-1.89-10h-.04L8.36 17.17 3.66 6.56h-.04L1.73 16.57H.06zM26.7 16.57h-1.63V1.77h1.63zM41.52 4.91L39 10.84h4.96l-2.45-5.93zm-3.17 7.46l-1.77 4.2h-1.79l6.77-15.5 6.59 15.5h-1.81l-1.73-4.2h-6.26zM60.45 15.04c1.8 0 3.29-.25 4.63-1.53a5.89 5.89 0 0 0 1.83-4.34c0-1.69-.64-3.32-1.9-4.43-1.35-1.2-2.83-1.44-4.56-1.44h-1.18v11.74h1.18zM57.64 1.77h2.76c2.2 0 3.98.3 5.71 1.79a7.2 7.2 0 0 1 2.43 5.63c0 2.16-.78 4.07-2.4 5.52-1.74 1.57-3.49 1.86-5.78 1.86h-2.72V1.77zM100.63 1.14l11.43 12.1V1.77h1.63v15.47L102.26 5.17v11.4h-1.63zM123.32 1.14l11.43 12.1V1.77h1.63v15.47L124.95 5.17v11.4h-1.63zM151.28 4.91l-2.5 5.93h4.95l-2.45-5.93zm-3.17 7.46l-1.77 4.2h-1.79l6.77-15.5 6.59 15.5h-1.81l-1.73-4.2h-6.26zM78.41 14.56l5.7 2.4 5.71-2.36 2.39-5.75-2.35-5.77-5.7-2.41-5.7 2.37-2.4 5.75 2.35 5.77zm5.7 2.92c-.03 0-.07 0-.1-.02l-5.88-2.49a.24.24 0 0 1-.13-.13l-2.42-5.96a.24.24 0 0 1 0-.19l2.46-5.94c.03-.06.07-.1.13-.13l5.9-2.44a.24.24 0 0 1 .19 0l5.88 2.48c.06.03.1.08.13.14l2.42 5.95c.03.06.03.13 0 .2l-2.46 5.93a.24.24 0 0 1-.13.13l-5.9 2.45a.25.25 0 0 1-.1.02z"/><path d="M80.09 8.82l4.05 4.09 4.04-4.1-4.04-4.08-4.05 4.09zm4.05 4.68a.24.24 0 0 1-.17-.07l-4.4-4.44a.25.25 0 0 1 0-.35l4.4-4.43c.09-.1.24-.1.34 0l4.39 4.43a.25.25 0 0 1 0 .35l-4.4 4.44a.24.24 0 0 1-.16.07z"/><path d="M84.61 4.52l3.79 3.82 1.31-5.11-5.1 1.29zm3.92 4.54a.24.24 0 0 1-.17-.07l-4.4-4.43a.25.25 0 0 1 .12-.41l5.9-1.5c.1-.02.18 0 .24.07.06.06.08.15.06.23l-1.52 5.93a.25.25 0 0 1-.23.18zM79.88 9.3l-1.32 5.1 5.1-1.28-3.78-3.82zM78.22 15a.24.24 0 0 1-.17-.08.25.25 0 0 1-.06-.23l1.52-5.93a.24.24 0 1 1 .4-.11l4.4 4.43a.25.25 0 0 1-.11.41L78.28 15h-.06z"/><path d="M84.61 13.12l5.06 1.33L88.4 9.3l-3.79 3.82zm5.4 1.91h-.06l-5.87-1.54a.25.25 0 0 1-.11-.41l4.39-4.44c.06-.06.15-.08.23-.06.09.03.15.1.17.18l1.47 5.9c.02.03.03.08.03.13 0 .14-.1.25-.25.24zM78.6 3.19l1.28 5.15 3.78-3.83L78.6 3.2zm1.15 5.87h-.07a.24.24 0 0 1-.17-.18L78.03 2.9a.25.25 0 0 1 .06-.24.24.24 0 0 1 .24-.06l5.87 1.54c.08.02.15.09.17.17.02.09 0 .18-.06.24l-4.4 4.43a.24.24 0 0 1-.16.07z"/><path d="M79.75 9.06H75.8a.24.24 0 0 1-.25-.24c0-.14.11-.25.25-.25h3.94c.13 0 .24.11.24.25 0 .13-.1.24-.24.24M92.47 9.06h-3.94a.24.24 0 0 1-.24-.24c0-.14.1-.25.24-.25h3.94c.13 0 .24.11.24.25 0 .13-.1.24-.24.24M84.14 17.48a.24.24 0 0 1-.25-.25v-3.98c0-.13.11-.24.25-.24.13 0 .24.1.24.24v3.98c0 .14-.1.25-.24.25M84.14 4.63a.24.24 0 0 1-.25-.24V.4c0-.14.11-.25.25-.25.13 0 .24.11.24.25v3.98c0 .13-.1.24-.24.24"/></g></svg>